# xmcd
# 
# Track frame offsets:
#     150
#     20608
#     41370
#     78458
#     104340
#     120288
#     138033
#     162385
# 
# Disc length: 2522
# 
# Revision: 3
# Processed by: cddbd v1.5.2PL0 Copyright (c) Steve Scherf et al.
# Submitted via: fre:ac v1.0.27
# 
DISCID=5809d808
DTITLE=FOGHAT - FOOL FOR THE CITY (JAPANESE LTD. EDITION PAPERSLEEVE)
DYEAR=1975
DGENRE=Rock
TTITLE0=Fool For The City
TTITLE1=My Babe
TTITLE2=Slow Ride
TTITLE3=Terraplane Blues
TTITLE4=Save Your Loving
TTITLE5=Drive Me Home
TTITLE6=Take It Or Leave It
TTITLE7=Slow Ride (Single Edit)
EXTD=YEAR: 1975
EXTT0=
EXTT1=
EXTT2=
EXTT3=
EXTT4=
EXTT5=
EXTT6=
EXTT7=
PLAYORDER=
